<svg width="1369" height="673" viewBox="0 0 1369 673" fill="none" xmlns="http://www.w3.org/2000/svg">
<path d="M93.0711 213.791C128.97 213.791 158.071 184.69 158.071 148.791V65C158.071 29.1014 187.173 0 223.071 0H1304C1339.9 0 1369 29.1015 1369 65V608C1369 643.898 1339.9 673 1304 673H1049.66C1018.92 673 993.997 648.079 993.997 617.338C993.997 586.597 969.076 561.677 938.335 561.677H426.868C396.126 561.677 371.206 586.597 371.206 617.338C371.206 648.079 346.285 673 315.544 673H65C29.1015 673 0 643.898 0 608V278.791C0 242.893 29.1015 213.791 65 213.791H93.0711Z" fill="black"/>
</svg>
